<svg xmlns="http://www.w3.org/2000/svg" viewBox="270 377 662 330" preserveAspectRatio="xMidYMid meet"><path d="M 355.00 383.00 L 354.00 384.00 L 349.00 384.00 L 349.00 385.00 L 346.00 385.00 L 346.00 386.00 L 340.00 388.00 L 331.00 397.00 L 331.00 399.00 L 329.00 401.00 L 329.00 404.00 L 328.00 404.00 L 328.00 407.00 L 327.00 407.00 L 327.00 414.00 L 326.00 414.00 L 327.00 415.00 L 327.00 422.00 L 328.00 422.00 L 330.00 430.00 L 332.00 431.00 L 332.00 433.00 L 339.00 440.00 L 341.00 440.00 L 341.00 441.00 L 343.00 441.00 L 343.00 442.00 L 345.00 442.00 L 347.00 444.00 L 350.00 444.00 L 350.00 445.00 L 365.00 445.00 L 365.00 444.00 L 368.00 444.00 L 368.00 443.00 L 376.00 440.00 L 383.00 433.00 L 384.00 429.00 L 386.00 428.00 L 387.00 422.00 L 388.00 422.00 L 389.00 412.00 L 388.00 412.00 L 387.00 403.00 L 386.00 403.00 L 384.00 397.00 L 381.00 395.00 L 381.00 393.00 L 379.00 391.00 L 377.00 391.00 L 375.00 388.00 L 373.00 388.00 L 373.00 387.00 L 371.00 387.00 L 369.00 385.00 L 361.00 384.00 L 361.00 383.00 L 356.00 383.00 Z" fill="#F58869"/><path d="M 513.00 383.00 L 512.00 384.00 L 507.00 384.00 L 507.00 385.00 L 504.00 385.00 L 504.00 386.00 L 498.00 388.00 L 490.00 396.00 L 490.00 398.00 L 487.00 401.00 L 486.00 407.00 L 485.00 407.00 L 485.00 422.00 L 486.00 422.00 L 487.00 428.00 L 489.00 429.00 L 490.00 433.00 L 497.00 440.00 L 499.00 440.00 L 499.00 441.00 L 501.00 441.00 L 501.00 442.00 L 503.00 442.00 L 505.00 444.00 L 508.00 444.00 L 508.00 445.00 L 523.00 445.00 L 523.00 444.00 L 529.00 443.00 L 530.00 441.00 L 534.00 440.00 L 541.00 433.00 L 541.00 431.00 L 543.00 430.00 L 543.00 428.00 L 545.00 426.00 L 547.00 412.00 L 546.00 412.00 L 545.00 403.00 L 544.00 403.00 L 542.00 397.00 L 539.00 395.00 L 539.00 393.00 L 537.00 391.00 L 535.00 391.00 L 533.00 388.00 L 531.00 388.00 L 531.00 387.00 L 529.00 387.00 L 527.00 385.00 L 519.00 384.00 L 519.00 383.00 L 514.00 383.00 Z" fill="#F58869"/><path d="M 762.00 451.00 L 761.00 452.00 L 755.00 452.00 L 755.00 453.00 L 750.00 453.00 L 750.00 454.00 L 744.00 455.00 L 744.00 456.00 L 736.00 459.00 L 735.00 461.00 L 733.00 461.00 L 731.00 464.00 L 729.00 464.00 L 720.00 473.00 L 720.00 475.00 L 717.00 477.00 L 717.00 479.00 L 715.00 480.00 L 714.00 484.00 L 712.00 485.00 L 710.00 491.00 L 709.00 491.00 L 709.00 488.00 L 708.00 488.00 L 708.00 475.00 L 707.00 475.00 L 706.00 456.00 L 637.00 456.00 L 631.00 642.00 L 725.00 642.00 L 723.00 554.00 L 724.00 554.00 L 724.00 551.00 L 726.00 549.00 L 731.00 548.00 L 731.00 547.00 L 737.00 548.00 L 739.00 553.00 L 740.00 553.00 L 740.00 556.00 L 741.00 556.00 L 742.00 642.00 L 825.00 642.00 L 825.00 553.00 L 826.00 553.00 L 826.00 551.00 L 828.00 549.00 L 833.00 548.00 L 833.00 547.00 L 837.00 547.00 L 841.00 551.00 L 842.00 560.00 L 843.00 560.00 L 843.00 642.00 L 926.00 642.00 L 926.00 518.00 L 925.00 518.00 L 925.00 508.00 L 924.00 508.00 L 924.00 501.00 L 923.00 501.00 L 923.00 496.00 L 922.00 496.00 L 921.00 488.00 L 920.00 488.00 L 920.00 485.00 L 918.00 483.00 L 918.00 480.00 L 917.00 480.00 L 915.00 474.00 L 910.00 469.00 L 910.00 467.00 L 905.00 462.00 L 903.00 462.00 L 901.00 459.00 L 899.00 459.00 L 899.00 458.00 L 897.00 458.00 L 897.00 457.00 L 895.00 457.00 L 893.00 455.00 L 890.00 455.00 L 888.00 453.00 L 876.00 452.00 L 876.00 451.00 L 857.00 452.00 L 857.00 453.00 L 852.00 453.00 L 852.00 454.00 L 846.00 455.00 L 846.00 456.00 L 838.00 459.00 L 837.00 461.00 L 835.00 461.00 L 833.00 464.00 L 831.00 464.00 L 822.00 473.00 L 822.00 475.00 L 816.00 481.00 L 816.00 479.00 L 815.00 479.00 L 813.00 473.00 L 811.00 472.00 L 811.00 470.00 L 807.00 467.00 L 807.00 465.00 L 805.00 463.00 L 803.00 463.00 L 798.00 458.00 L 796.00 458.00 L 796.00 457.00 L 794.00 457.00 L 792.00 455.00 L 786.00 454.00 L 786.00 453.00 L 782.00 453.00 L 782.00 452.00 L 763.00 451.00 Z" fill="#F58869"/><path d="M 277.00 455.00 L 276.00 455.00 L 276.00 526.00 L 308.00 528.00 L 308.00 529.00 L 319.00 529.00 L 319.00 539.00 L 318.00 539.00 L 316.00 617.00 L 315.00 617.00 L 314.00 622.00 L 309.00 627.00 L 304.00 628.00 L 304.00 629.00 L 292.00 630.00 L 292.00 629.00 L 285.00 629.00 L 285.00 628.00 L 282.00 628.00 L 282.00 627.00 L 279.00 627.00 L 279.00 626.00 L 276.00 625.00 L 276.00 688.00 L 281.00 690.00 L 281.00 691.00 L 283.00 691.00 L 283.00 692.00 L 285.00 692.00 L 285.00 693.00 L 287.00 693.00 L 287.00 694.00 L 290.00 694.00 L 290.00 695.00 L 298.00 697.00 L 298.00 698.00 L 306.00 699.00 L 306.00 700.00 L 313.00 700.00 L 313.00 701.00 L 339.00 700.00 L 339.00 699.00 L 342.00 699.00 L 342.00 698.00 L 346.00 698.00 L 346.00 697.00 L 352.00 696.00 L 352.00 695.00 L 354.00 695.00 L 356.00 693.00 L 359.00 693.00 L 360.00 691.00 L 362.00 691.00 L 365.00 688.00 L 367.00 688.00 L 368.00 686.00 L 370.00 686.00 L 373.00 682.00 L 375.00 682.00 L 378.00 679.00 L 378.00 677.00 L 384.00 672.00 L 384.00 670.00 L 387.00 668.00 L 387.00 666.00 L 389.00 665.00 L 389.00 663.00 L 390.00 663.00 L 390.00 661.00 L 391.00 661.00 L 391.00 659.00 L 392.00 659.00 L 392.00 657.00 L 394.00 655.00 L 396.00 646.00 L 397.00 646.00 L 397.00 642.00 L 398.00 642.00 L 398.00 638.00 L 399.00 638.00 L 399.00 631.00 L 400.00 631.00 L 401.00 474.00 L 402.00 474.00 L 402.00 456.00 L 401.00 455.00 L 278.00 455.00 Z" fill="#F58869"/><path d="M 477.00 456.00 L 476.00 456.00 L 476.00 464.00 L 475.00 464.00 L 475.00 494.00 L 474.00 494.00 L 474.00 525.00 L 473.00 525.00 L 473.00 555.00 L 472.00 555.00 L 470.00 642.00 L 563.00 642.00 L 561.00 556.00 L 560.00 556.00 L 560.00 524.00 L 559.00 524.00 L 559.00 491.00 L 558.00 491.00 L 558.00 459.00 L 557.00 459.00 L 557.00 456.00 L 478.00 456.00 Z" fill="#F58869"/></svg>
